# xmcd CD database file
#
# Track frame offsets:
#	150
#	11985
#	27840
#	41130
#	54335
#	69175
#	81318
#	96678
#	108213
#	121065
#	132940
#	147030
#	162480
#	174850
#	189750
#	206035
#	222268
#	238575
#	254175
#	271120
#	290535
#	307958
#	324088
#	335955
#
# Disc length: 4639 seconds
#
# Revision: 0
# Processed by: cddbd v1.5PL3 Copyright (c) Steve Scherf et al.
# Submitted via: CDex 1.50
#
DISCID=5f121d18
DTITLE=Cats'Eye vs Cupid - Complete Collection
DYEAR=2003
DGENRE=JPop
TTITLE0=Cats'Eye　アバンチュール
TTITLE1=Cats'Eye　鏡よ鏡
TTITLE2=Cats'Eye　めっきり冷たくなりました
TTITLE3=Cats'Eye　夢見るナイチンゲール
TTITLE4=Cats'Eye　導火線
TTITLE5=Cats'Eye　大地震
TTITLE6=Cats'Eye　ジャンヌダルク
TTITLE7=Cats'Eye　アンコールアンコール
TTITLE8=Cats'Eye　独占！私のアラジン
TTITLE9=Cats'Eye　ウィークポイント
TTITLE10=Cats'Eye　ダンシングクイーン
TTITLE11=Cats'Eye　キャプテンハニー
TTITLE12=Cupid　愛のデュエット
TTITLE13=Cupid　スーパーウーマン
TTITLE14=Cupid　テレパシーLOVE
TTITLE15=Cupid　あんちきしょうめ
TTITLE16=Cupid　地下鉄ファンタジア
TTITLE17=Cupid　ウェディングベルが二度なった
TTITLE18=Cupid　LOVE BEAT 3-3-7
TTITLE19=Cupid　追いかけて…
TTITLE20=Cupid　横浜レイン
TTITLE21=Cupid　ウインターサンバ
TTITLE22=Cats'Eye　アバンチュール（オリジナルカラオケ）
TTITLE23=Cupid　愛のデュエット（オリジナルカラオケ）
EXTD=YEAR: 2003
EXTT0=
EXTT1=
EXTT2=
EXTT3=
EXTT4=
EXTT5=
EXTT6=
EXTT7=
EXTT8=
EXTT9=
EXTT10=
EXTT11=
EXTT12=
EXTT13=
EXTT14=
EXTT15=
EXTT16=
EXTT17=
EXTT18=
EXTT19=
EXTT20=
EXTT21=
EXTT22=
EXTT23=
PLAYORDER=
